# WaveFront *.obj file (generated by Autodesk ATF)

mtllib Robot Shape.mtl

g Solid8

v -0.042432 -0.002396 -0.037500
v -0.042432 -0.002396 0.037500
v -0.042432 0.002396 -0.037500
v -0.042432 0.002396 0.037500
v -0.041893 -0.007159 -0.037500
v -0.041893 -0.007159 0.037500
v -0.041893 0.007159 -0.037500
v -0.041893 0.007159 0.037500
v -0.040820 -0.011830 -0.037500
v -0.040820 -0.011830 0.037500
v -0.040820 0.011830 -0.037500
v -0.040820 0.011830 0.037500
v -0.039229 -0.016351 -0.037500
v -0.039229 -0.016351 0.037500
v -0.039229 0.016351 -0.037500
v -0.039229 0.016351 0.037500
v -0.037138 -0.020664 -0.037500
v -0.037138 -0.020664 0.037500
v -0.037138 0.020664 -0.037500
v -0.037138 0.020664 0.037500
v -0.034575 -0.024715 -0.037500
v -0.034575 -0.024715 0.037500
v -0.034575 0.024715 -0.037500
v -0.034575 0.024715 0.037500
v -0.031572 -0.028450 -0.037500
v -0.031572 -0.028450 0.037500
v -0.031572 0.028450 -0.037500
v -0.031572 0.028450 0.037500
v -0.028168 -0.031824 -0.037500
v -0.028168 -0.031824 0.037500
v -0.028168 0.031824 -0.037500
v -0.028168 0.031824 0.037500
v -0.024406 -0.034794 -0.037500
v -0.024406 -0.034794 0.037500
v -0.024406 0.034794 -0.037500
v -0.024406 0.034794 0.037500
v -0.020333 -0.037320 -0.037500
v -0.020333 -0.037320 0.037500
v -0.020333 0.037320 -0.037500
v -0.020333 0.037320 0.037500
v -0.016002 -0.039373 -0.037500
v -0.016002 -0.039373 0.037500
v -0.016002 0.039373 -0.037500
v -0.016002 0.039373 0.037500
v -0.011467 -0.040924 -0.037500
v -0.011467 -0.040924 0.037500
v -0.011467 0.040924 -0.037500
v -0.011467 0.040924 0.037500
v -0.006786 -0.041955 -0.037500
v -0.006786 -0.041955 0.037500
v -0.006786 0.041955 -0.037500
v -0.006786 0.041955 0.037500
v -0.002019 -0.042452 -0.037500
v -0.002019 -0.042452 0.037500
v -0.002019 0.042452 -0.037500
v -0.002019 0.042452 0.037500
v 0.002774 -0.042409 -0.037500
v 0.002774 -0.042409 0.037500
v 0.002774 0.042409 -0.037500
v 0.002774 0.042409 0.037500
v 0.007532 -0.041827 -0.037500
v 0.007532 -0.041827 0.037500
v 0.007532 0.041827 -0.037500
v 0.007532 0.041827 0.037500
v 0.012193 -0.040713 -0.037500
v 0.012193 -0.040713 0.037500
v 0.012193 0.040713 -0.037500
v 0.012193 0.040713 0.037500
v 0.016700 -0.039081 -0.037500
v 0.016700 -0.039081 0.037500
v 0.016700 0.039081 -0.037500
v 0.016700 0.039081 0.037500
v 0.018500 -0.020000 -0.037500
v 0.018500 -0.020000 0.037500
v 0.018500 0.020000 -0.037500
v 0.018500 0.020000 0.037500
v 0.020994 -0.036953 -0.037500
v 0.020994 -0.036953 0.037500
v 0.020994 0.036953 -0.037500
v 0.020994 0.036953 0.037500
v 0.025021 -0.034354 -0.037500
v 0.025021 -0.034354 0.037500
v 0.025021 0.034354 -0.037500
v 0.025021 0.034354 0.037500
v 0.028730 -0.031318 -0.037500
v 0.028730 -0.031318 0.037500
v 0.028730 0.031318 -0.037500
v 0.028730 0.031318 0.037500
v 0.030519 -0.020000 0.000000
v 0.030519 -0.020000 0.037500
v 0.030519 0.020000 0.000000
v 0.030519 0.020000 0.037500
v 0.032074 -0.027884 -0.037500
v 0.032074 -0.027884 0.037500
v 0.032074 0.027884 -0.037500
v 0.032074 0.027884 0.037500
v 0.035010 -0.024095 -0.037500
v 0.035010 -0.024095 0.037500
v 0.035010 0.024095 -0.037500
v 0.035010 0.024095 0.037500
v 0.037500 -0.020000 -0.037500
v 0.037500 -0.020000 0.000000
v 0.037500 -0.020000 0.037500
v 0.037500 0.020000 -0.037500
v 0.037500 0.020000 0.000000
v 0.037500 0.020000 0.037500
vt -0.000000 0.000000 0.000000
vt -3.750000 0.000000 0.000000
vt -3.750000 -0.479551 0.000000
vt -3.750000 -0.959102 0.000000
vt -3.750000 -1.438653 0.000000
vt -3.750000 -1.918204 0.000000
vt -3.750000 -2.397755 0.000000
vt -3.750000 -2.877306 0.000000
vt -3.750000 -3.356857 0.000000
vt -3.750000 -3.836409 0.000000
vt -3.750000 -4.315959 0.000000
vt -3.750000 -4.795511 0.000000
vt -3.750000 -5.275062 0.000000
vt -3.750000 -5.754613 0.000000
vt -3.750000 -6.234164 0.000000
vt -3.750000 -6.713715 0.000000
vt -3.750000 -7.193266 0.000000
vt -3.750000 -7.672817 0.000000
vt -3.750000 -8.152369 0.000000
vt -3.750000 -8.631919 0.000000
vt -3.750000 -9.111470 0.000000
vt -3.750000 -9.591022 0.000000
vt -3.750000 -10.070572 0.000000
vt -3.750000 -10.550124 0.000000
vt -3.750000 -11.029675 0.000000
vt -3.750000 -11.509226 0.000000
vt -3.750000 -11.988777 0.000000
vt -3.750000 -12.468328 0.000000
vt -3.750000 -12.947879 0.000000
vt -3.750000 -13.427429 0.000000
vt -3.750000 -13.906981 0.000000
vt -3.750000 -14.386532 0.000000
vt -3.750000 -14.866083 0.000000
vt -3.750000 -15.345634 0.000000
vt -3.750000 -15.825185 0.000000
vt -3.750000 -16.304737 0.000000
vt -3.750000 -16.784286 0.000000
vt -3.750000 -17.263838 0.000000
vt -3.750000 -17.743389 0.000000
vt -3.750000 -18.222940 0.000000
vt -3.750000 -18.702492 0.000000
vt -3.750000 -19.182043 0.000000
vt -3.750000 -19.661594 0.000000
vt -3.750000 -20.141144 0.000000
vt -3.750000 -20.620695 0.000000
vt -3.750000 -21.100248 0.000000
vt -3.750000 -21.579798 0.000000
vt -3.750000 -22.059349 0.000000
vt -3.750000 -22.538900 0.000000
vt -0.000000 -22.538900 0.000000
vt 3.750000 -22.538900 0.000000
vt 3.750000 -22.059349 0.000000
vt 3.750000 -21.579798 0.000000
vt 3.750000 -21.100248 0.000000
vt 3.750000 -20.620695 0.000000
vt 3.750000 -20.141144 0.000000
vt 3.750000 -19.661594 0.000000
vt 3.750000 -19.182043 0.000000
vt 3.750000 -18.702492 0.000000
vt 3.750000 -18.222940 0.000000
vt 3.750000 -17.743389 0.000000
vt 3.750000 -17.263838 0.000000
vt 3.750000 -16.784286 0.000000
vt 3.750000 -16.304737 0.000000
vt 3.750000 -15.825185 0.000000
vt 3.750000 -15.345634 0.000000
vt 3.750000 -14.866083 0.000000
vt 3.750000 -14.386532 0.000000
vt 3.750000 -13.906981 0.000000
vt 3.750000 -13.427429 0.000000
vt 3.750000 -12.947879 0.000000
vt 3.750000 -12.468328 0.000000
vt 3.750000 -11.988777 0.000000
vt 3.750000 -11.509226 0.000000
vt 3.750000 -11.029675 0.000000
vt 3.750000 -10.550124 0.000000
vt 3.750000 -10.070572 0.000000
vt 3.750000 -9.591022 0.000000
vt 3.750000 -9.111470 0.000000
vt 3.750000 -8.631919 0.000000
vt 3.750000 -8.152369 0.000000
vt 3.750000 -7.672817 0.000000
vt 3.750000 -7.193266 0.000000
vt 3.750000 -6.713715 0.000000
vt 3.750000 -6.234164 0.000000
vt 3.750000 -5.754613 0.000000
vt 3.750000 -5.275062 0.000000
vt 3.750000 -4.795511 0.000000
vt 3.750000 -4.315959 0.000000
vt 3.750000 -3.836409 0.000000
vt 3.750000 -3.356857 0.000000
vt 3.750000 -2.877306 0.000000
vt 3.750000 -2.397755 0.000000
vt 3.750000 -1.918204 0.000000
vt 3.750000 -1.438653 0.000000
vt 3.750000 -0.959102 0.000000
vt 3.750000 -0.479551 0.000000
vt 3.750000 0.000000 0.000000
vt 4.000000 -3.750000 0.000000
vt 4.000000 3.750000 0.000000
vt 0.000000 3.750000 0.000000
vt 0.000000 -3.750000 0.000000
vt 1.900000 -3.750000 0.000000
vt 1.900000 3.750000 0.000000
vt 0.000000 3.750000 0.000000
vt 0.000000 0.000000 0.000000
vt 0.698086 0.000000 0.000000
vt 0.698086 -3.750000 0.000000
vt 1.201913 0.000000 0.000000
vt 1.900000 0.000000 0.000000
vt 1.900000 3.750000 0.000000
vt 0.000000 3.750000 0.000000
vt 0.000000 -3.750000 0.000000
vt 1.201913 -3.750000 0.000000
vt -3.301913 -2.000000 0.000000
vt -3.301913 2.000000 0.000000
vt -4.000000 2.000000 0.000000
vt -4.000000 -2.000000 0.000000
vt -2.100000 -2.000000 0.000000
vt -4.000000 -2.000000 0.000000
vt -3.750961 -2.409518 0.000000
vt -3.457395 -2.788390 0.000000
vt -3.123036 -3.131799 0.000000
vt -2.752137 -3.435376 0.000000
vt -2.349415 -3.695261 0.000000
vt -1.919992 -3.908149 0.000000
vt -1.469329 -4.071331 0.000000
vt -1.003158 -4.182733 0.000000
vt -0.527409 -4.240937 0.000000
vt -0.048131 -4.245203 0.000000
vt 0.428579 -4.195477 0.000000
vt 0.896659 -4.092392 0.000000
vt 1.350155 -3.937258 0.000000
vt 1.783300 -3.732049 0.000000
vt 2.190585 -3.479374 0.000000
vt 2.566829 -3.182448 0.000000
vt 2.907248 -2.845045 0.000000
vt 3.207512 -2.471459 0.000000
vt 3.463802 -2.066439 0.000000
vt 3.672859 -1.635138 0.000000
vt 3.832023 -1.183041 0.000000
vt 3.939271 -0.715897 0.000000
vt 3.993238 -0.239648 0.000000
vt 3.993238 0.239648 0.000000
vt 3.939271 0.715897 0.000000
vt 3.832023 1.183041 0.000000
vt 3.672859 1.635138 0.000000
vt 3.463802 2.066439 0.000000
vt 3.207512 2.471459 0.000000
vt 2.907248 2.845045 0.000000
vt 2.566829 3.182448 0.000000
vt 2.190585 3.479374 0.000000
vt 1.783300 3.732049 0.000000
vt 1.350155 3.937258 0.000000
vt 0.896659 4.092392 0.000000
vt 0.428579 4.195477 0.000000
vt -0.048131 4.245203 0.000000
vt -0.527409 4.240937 0.000000
vt -1.003158 4.182733 0.000000
vt -1.469329 4.071331 0.000000
vt -1.919992 3.908149 0.000000
vt -2.349415 3.695261 0.000000
vt -2.752137 3.435376 0.000000
vt -3.123036 3.131799 0.000000
vt -3.457395 2.788390 0.000000
vt -3.750961 2.409518 0.000000
vt -4.000000 2.000000 0.000000
vt -2.100000 2.000000 0.000000
vt 0.000000 0.000000 0.000000
vt 4.000000 0.000000 0.000000
vt 4.000000 3.750000 0.000000
vt 0.000000 3.750000 0.000000
vt 3.301913 2.000000 0.000000
vt 3.301913 -2.000000 0.000000
vt 2.100000 -2.000000 0.000000
vt 2.100000 2.000000 0.000000
vt 4.000000 2.000000 0.000000
vt 3.750961 2.409518 0.000000
vt 3.457395 2.788390 0.000000
vt 3.123036 3.131799 0.000000
vt 2.752137 3.435376 0.000000
vt 2.349415 3.695261 0.000000
vt 1.919992 3.908149 0.000000
vt 1.469329 4.071331 0.000000
vt 1.003158 4.182733 0.000000
vt 0.527409 4.240937 0.000000
vt 0.048131 4.245203 0.000000
vt -0.428579 4.195477 0.000000
vt -0.896659 4.092392 0.000000
vt -1.350155 3.937258 0.000000
vt -1.783300 3.732049 0.000000
vt -2.190585 3.479374 0.000000
vt -2.566829 3.182448 0.000000
vt -2.907248 2.845045 0.000000
vt -3.207512 2.471459 0.000000
vt -3.463802 2.066439 0.000000
vt -3.672859 1.635138 0.000000
vt -3.832023 1.183041 0.000000
vt -3.939271 0.715897 0.000000
vt -3.993238 0.239648 0.000000
vt -3.993238 -0.239648 0.000000
vt -3.939271 -0.715897 0.000000
vt -3.832023 -1.183041 0.000000
vt -3.672859 -1.635138 0.000000
vt -3.463802 -2.066439 0.000000
vt -3.207512 -2.471459 0.000000
vt -2.907248 -2.845045 0.000000
vt -2.566829 -3.182448 0.000000
vt -2.190585 -3.479374 0.000000
vt -1.783300 -3.732049 0.000000
vt -1.350155 -3.937258 0.000000
vt -0.896659 -4.092392 0.000000
vt -0.428579 -4.195477 0.000000
vt 0.048131 -4.245203 0.000000
vt 0.527409 -4.240937 0.000000
vt 1.003158 -4.182733 0.000000
vt 1.469329 -4.071331 0.000000
vt 1.919992 -3.908149 0.000000
vt 2.349415 -3.695261 0.000000
vt 2.752137 -3.435376 0.000000
vt 3.123036 -3.131799 0.000000
vt 3.457395 -2.788390 0.000000
vt 3.750961 -2.409518 0.000000
vt 4.000000 -2.000000 0.000000
vt -4.000000 0.000000 0.000000
vt -0.000000 0.000000 0.000000
vt -0.000000 3.750000 0.000000
vt -4.000000 3.750000 0.000000
vn 88.235295 47.058824 0.000000
vn 88.235295 47.058824 0.000000
vn 82.375544 56.694531 0.000000
vn 75.468111 65.609181 0.000000
vn 67.600846 73.689389 0.000000
vn 58.873808 80.832386 0.000000
vn 49.397996 86.947328 0.000000
vn 39.293921 91.956443 0.000000
vn 28.690091 95.796025 0.000000
vn 17.721371 98.417240 0.000000
vn 6.527265 99.786747 0.000000
vn -4.749858 99.887133 0.000000
vn -15.966570 98.717111 0.000000
vn -26.980215 96.291578 0.000000
vn -37.650713 92.641371 0.000000
vn -47.842360 87.812918 0.000000
vn -57.425529 81.867629 0.000000
vn -66.278338 74.881119 0.000000
vn -74.288195 66.942245 0.000000
vn -81.353229 58.151972 0.000000
vn -87.383586 48.622105 0.000000
vn -92.302567 38.473842 0.000000
vn -96.047610 27.836257 0.000000
vn -98.571080 16.844638 0.000000
vn -99.840891 5.638785 0.000000
vn -99.840891 -5.638785 0.000000
vn -98.571080 -16.844638 0.000000
vn -96.047610 -27.836257 0.000000
vn -92.302567 -38.473842 0.000000
vn -87.383586 -48.622105 0.000000
vn -81.353229 -58.151972 0.000000
vn -74.288195 -66.942245 0.000000
vn -66.278338 -74.881119 0.000000
vn -57.425529 -81.867629 0.000000
vn -47.842360 -87.812918 0.000000
vn -37.650713 -92.641371 0.000000
vn -26.980215 -96.291578 0.000000
vn -15.966570 -98.717111 0.000000
vn -4.749858 -99.887133 0.000000
vn 6.527265 -99.786747 0.000000
vn 17.721371 -98.417240 0.000000
vn 28.690091 -95.796025 0.000000
vn 39.293921 -91.956443 0.000000
vn 49.397996 -86.947328 0.000000
vn 58.873808 -80.832386 0.000000
vn 67.600846 -73.689389 0.000000
vn 75.468111 -65.609181 0.000000
vn 82.375544 -56.694531 0.000000
vn 88.235295 -47.058824 0.000000
vn 88.235295 -47.058824 0.000000
vn 88.235295 -47.058824 0.000000
vn 82.375544 -56.694531 0.000000
vn 75.468111 -65.609181 0.000000
vn 67.600846 -73.689389 0.000000
vn 58.873808 -80.832386 0.000000
vn 49.397996 -86.947328 0.000000
vn 39.293921 -91.956443 0.000000
vn 28.690091 -95.796025 0.000000
vn 17.721371 -98.417240 0.000000
vn 6.527265 -99.786747 0.000000
vn -4.749858 -99.887133 0.000000
vn -15.966570 -98.717111 0.000000
vn -26.980215 -96.291578 0.000000
vn -37.650713 -92.641371 0.000000
vn -47.842360 -87.812918 0.000000
vn -57.425529 -81.867629 0.000000
vn -66.278338 -74.881119 0.000000
vn -74.288195 -66.942245 0.000000
vn -81.353229 -58.151972 0.000000
vn -87.383586 -48.622105 0.000000
vn -92.302567 -38.473842 0.000000
vn -96.047610 -27.836257 0.000000
vn -98.571080 -16.844638 0.000000
vn -99.840891 -5.638785 0.000000
vn -99.840891 5.638785 0.000000
vn -98.571080 16.844638 0.000000
vn -96.047610 27.836257 0.000000
vn -92.302567 38.473842 0.000000
vn -87.383586 48.622105 0.000000
vn -81.353229 58.151972 0.000000
vn -74.288195 66.942245 0.000000
vn -66.278338 74.881119 0.000000
vn -57.425529 81.867629 0.000000
vn -47.842360 87.812918 0.000000
vn -37.650713 92.641371 0.000000
vn -26.980215 96.291578 0.000000
vn -15.966570 98.717111 0.000000
vn -4.749858 99.887133 0.000000
vn 6.527265 99.786747 0.000000
vn 17.721371 98.417240 0.000000
vn 28.690091 95.796025 0.000000
vn 39.293921 91.956443 0.000000
vn 49.397996 86.947328 0.000000
vn 58.873808 80.832386 0.000000
vn 67.600846 73.689389 0.000000
vn 75.468111 65.609181 0.000000
vn 82.375544 56.694531 0.000000
vn 88.235295 47.058824 0.000000
vn 100.000000 0.000000 0.000000
vn 100.000000 0.000000 0.000000
vn 100.000000 0.000000 0.000000
vn 100.000000 0.000000 0.000000
vn 0.000000 -100.000000 0.000000
vn 0.000000 -100.000000 0.000000
vn 0.000000 -100.000000 0.000000
vn 0.000000 -100.000000 0.000000
vn 0.000000 -100.000000 0.000000
vn 0.000000 -100.000000 0.000000
vn 0.000000 100.000000 0.000000
vn 0.000000 100.000000 0.000000
vn 0.000000 100.000000 0.000000
vn 0.000000 100.000000 0.000000
vn 0.000000 100.000000 0.000000
vn 0.000000 100.000000 0.000000
vn 0.000000 0.000000 -100.000000
vn 0.000000 0.000000 -100.000000
vn 0.000000 0.000000 -100.000000
vn 0.000000 0.000000 -100.000000
vn 0.000000 0.000000 -100.000000
vn 0.000000 0.000000 -100.000000
vn 0.000000 0.000000 -100.000000
vn 0.000000 0.000000 -100.000000
vn 0.000000 0.000000 -100.000000
vn 0.000000 0.000000 -100.000000
vn 0.000000 0.000000 -100.000000
vn 0.000000 0.000000 -100.000000
vn 0.000000 0.000000 -100.000000
vn 0.000000 0.000000 -100.000000
vn 0.000000 0.000000 -100.000000
vn 0.000000 0.000000 -100.000000
vn 0.000000 0.000000 -100.000000
vn 0.000000 0.000000 -100.000000
vn 0.000000 0.000000 -100.000000
vn 0.000000 0.000000 -100.000000
vn 0.000000 0.000000 -100.000000
vn 0.000000 0.000000 -100.000000
vn 0.000000 0.000000 -100.000000
vn 0.000000 0.000000 -100.000000
vn 0.000000 0.000000 -100.000000
vn 0.000000 0.000000 -100.000000
vn 0.000000 0.000000 -100.000000
vn 0.000000 0.000000 -100.000000
vn 0.000000 0.000000 -100.000000
vn 0.000000 0.000000 -100.000000
vn 0.000000 0.000000 -100.000000
vn 0.000000 0.000000 -100.000000
vn 0.000000 0.000000 -100.000000
vn 0.000000 0.000000 -100.000000
vn 0.000000 0.000000 -100.000000
vn 0.000000 0.000000 -100.000000
vn 0.000000 0.000000 -100.000000
vn 0.000000 0.000000 -100.000000
vn 0.000000 0.000000 -100.000000
vn 0.000000 0.000000 -100.000000
vn 0.000000 0.000000 -100.000000
vn 0.000000 0.000000 -100.000000
vn 0.000000 0.000000 -100.000000
vn 0.000000 0.000000 -100.000000
vn 0.000000 0.000000 -100.000000
vn 0.000000 0.000000 -100.000000
vn 0.000000 0.000000 -100.000000
vn 0.000000 0.000000 -100.000000
vn 0.000000 0.000000 -100.000000
vn 0.000000 0.000000 -100.000000
vn 0.000000 0.000000 -100.000000
vn 0.000000 0.000000 -100.000000
vn 0.000000 0.000000 -100.000000
vn 0.000000 0.000000 -100.000000
vn 100.000000 0.000000 0.000000
vn 100.000000 0.000000 0.000000
vn 100.000000 0.000000 0.000000
vn 100.000000 0.000000 0.000000
vn 0.000000 0.000000 100.000000
vn 0.000000 0.000000 100.000000
vn 0.000000 0.000000 100.000000
vn 0.000000 0.000000 100.000000
vn 0.000000 0.000000 100.000000
vn 0.000000 0.000000 100.000000
vn 0.000000 0.000000 100.000000
vn 0.000000 0.000000 100.000000
vn 0.000000 0.000000 100.000000
vn 0.000000 0.000000 100.000000
vn 0.000000 0.000000 100.000000
vn 0.000000 0.000000 100.000000
vn 0.000000 0.000000 100.000000
vn 0.000000 0.000000 100.000000
vn 0.000000 0.000000 100.000000
vn 0.000000 0.000000 100.000000
vn 0.000000 0.000000 100.000000
vn 0.000000 0.000000 100.000000
vn 0.000000 0.000000 100.000000
vn 0.000000 0.000000 100.000000
vn 0.000000 0.000000 100.000000
vn 0.000000 0.000000 100.000000
vn 0.000000 0.000000 100.000000
vn 0.000000 0.000000 100.000000
vn 0.000000 0.000000 100.000000
vn 0.000000 0.000000 100.000000
vn 0.000000 0.000000 100.000000
vn 0.000000 0.000000 100.000000
vn 0.000000 0.000000 100.000000
vn 0.000000 0.000000 100.000000
vn 0.000000 0.000000 100.000000
vn 0.000000 0.000000 100.000000
vn 0.000000 0.000000 100.000000
vn 0.000000 0.000000 100.000000
vn 0.000000 0.000000 100.000000
vn 0.000000 0.000000 100.000000
vn 0.000000 0.000000 100.000000
vn 0.000000 0.000000 100.000000
vn 0.000000 0.000000 100.000000
vn 0.000000 0.000000 100.000000
vn 0.000000 0.000000 100.000000
vn 0.000000 0.000000 100.000000
vn 0.000000 0.000000 100.000000
vn 0.000000 0.000000 100.000000
vn 0.000000 0.000000 100.000000
vn 0.000000 0.000000 100.000000
vn 0.000000 0.000000 100.000000
vn 0.000000 0.000000 100.000000
vn 0.000000 0.000000 100.000000
vn 0.000000 0.000000 100.000000
vn 0.000000 0.000000 100.000000
vn 0.000000 0.000000 100.000000
vn -100.000000 0.000000 0.000000
vn -100.000000 0.000000 0.000000
vn -100.000000 0.000000 0.000000
vn -100.000000 0.000000 0.000000
usemtl 191,191,191
f 104/2/2 99/3/3 105/1/1
f 105/1/1 99/3/3 100/97/97
f 105/1/1 100/97/97 106/98/98
f 100/97/97 99/3/3 96/96/96
f 96/96/96 99/3/3 95/4/4
f 96/96/96 95/4/4 88/95/95
f 88/95/95 95/4/4 87/5/5
f 88/95/95 87/5/5 84/94/94
f 84/94/94 87/5/5 83/6/6
f 84/94/94 83/6/6 80/93/93
f 80/93/93 83/6/6 79/7/7
f 80/93/93 79/7/7 72/92/92
f 72/92/92 79/7/7 71/8/8
f 72/92/92 71/8/8 68/91/91
f 68/91/91 71/8/8 67/9/9
f 68/91/91 67/9/9 64/90/90
f 64/90/90 67/9/9 63/10/10
f 64/90/90 63/10/10 60/89/89
f 60/89/89 63/10/10 59/11/11
f 60/89/89 59/11/11 56/88/88
f 56/88/88 59/11/11 55/12/12
f 56/88/88 55/12/12 52/87/87
f 52/87/87 55/12/12 51/13/13
f 52/87/87 51/13/13 48/86/86
f 48/86/86 51/13/13 47/14/14
f 48/86/86 47/14/14 44/85/85
f 44/85/85 47/14/14 43/15/15
f 44/85/85 43/15/15 40/84/84
f 40/84/84 43/15/15 39/16/16
f 40/84/84 39/16/16 36/83/83
f 36/83/83 39/16/16 35/17/17
f 36/83/83 35/17/17 32/82/82
f 32/82/82 35/17/17 31/18/18
f 32/82/82 31/18/18 28/81/81
f 28/81/81 31/18/18 27/19/19
f 28/81/81 27/19/19 24/80/80
f 24/80/80 27/19/19 23/20/20
f 24/80/80 23/20/20 20/79/79
f 20/79/79 23/20/20 19/21/21
f 20/79/79 19/21/21 16/78/78
f 16/78/78 19/21/21 15/22/22
f 16/78/78 15/22/22 12/77/77
f 12/77/77 15/22/22 11/23/23
f 12/77/77 11/23/23 8/76/76
f 8/76/76 11/23/23 7/24/24
f 8/76/76 7/24/24 4/75/75
f 4/75/75 7/24/24 3/25/25
f 4/75/75 3/25/25 2/74/74
f 2/74/74 3/25/25 1/26/26
f 2/74/74 1/26/26 6/73/73
f 6/73/73 1/26/26 5/27/27
f 6/73/73 5/27/27 10/72/72
f 10/72/72 5/27/27 9/28/28
f 10/72/72 9/28/28 14/71/71
f 14/71/71 9/28/28 13/29/29
f 14/71/71 13/29/29 18/70/70
f 18/70/70 13/29/29 17/30/30
f 18/70/70 17/30/30 22/69/69
f 22/69/69 17/30/30 21/31/31
f 22/69/69 21/31/31 26/68/68
f 26/68/68 21/31/31 25/32/32
f 26/68/68 25/32/32 30/67/67
f 30/67/67 25/32/32 29/33/33
f 30/67/67 29/33/33 34/66/66
f 34/66/66 29/33/33 33/34/34
f 34/66/66 33/34/34 38/65/65
f 38/65/65 33/34/34 37/35/35
f 38/65/65 37/35/35 42/64/64
f 42/64/64 37/35/35 41/36/36
f 42/64/64 41/36/36 46/63/63
f 46/63/63 41/36/36 45/37/37
f 46/63/63 45/37/37 50/62/62
f 50/62/62 45/37/37 49/38/38
f 50/62/62 49/38/38 54/61/61
f 54/61/61 49/38/38 53/39/39
f 54/61/61 53/39/39 58/60/60
f 58/60/60 53/39/39 57/40/40
f 58/60/60 57/40/40 62/59/59
f 62/59/59 57/40/40 61/41/41
f 62/59/59 61/41/41 66/58/58
f 66/58/58 61/41/41 65/42/42
f 66/58/58 65/42/42 70/57/57
f 70/57/57 65/42/42 69/43/43
f 70/57/57 69/43/43 78/56/56
f 78/56/56 69/43/43 77/44/44
f 78/56/56 77/44/44 82/55/55
f 82/55/55 77/44/44 81/45/45
f 82/55/55 81/45/45 86/54/54
f 86/54/54 81/45/45 85/46/46
f 86/54/54 85/46/46 94/53/53
f 94/53/53 85/46/46 93/47/47
f 94/53/53 93/47/47 98/52/52
f 98/52/52 93/47/47 97/48/48
f 98/52/52 97/48/48 102/50/50
f 102/50/50 97/48/48 101/49/49
f 102/50/50 103/51/51 98/52/52
f 73/100/100 75/101/101 74/99/99
f 74/99/99 75/101/101 76/102/102
f 92/108/108 76/103/103 91/107/107
f 91/107/107 76/103/103 75/104/104
f 91/107/107 75/104/104 104/105/105
f 104/105/105 105/106/106 91/107/107
f 102/110/110 101/111/111 89/109/109
f 89/109/109 101/111/111 73/112/112
f 89/109/109 73/112/112 74/113/113
f 74/113/113 90/114/114 89/109/109
f 91/116/116 105/117/117 89/115/115
f 89/115/115 105/117/117 102/118/118
f 101/120/120 97/121/121 73/119/119
f 73/119/119 97/121/121 93/122/122
f 73/119/119 93/122/122 85/123/123
f 85/123/123 81/124/124 73/119/119
f 73/119/119 81/124/124 77/125/125
f 73/119/119 77/125/125 69/126/126
f 69/126/126 65/127/127 73/119/119
f 73/119/119 65/127/127 61/128/128
f 73/119/119 61/128/128 57/129/129
f 57/129/129 53/130/130 73/119/119
f 73/119/119 53/130/130 49/131/131
f 73/119/119 49/131/131 45/132/132
f 45/132/132 41/133/133 73/119/119
f 73/119/119 41/133/133 37/134/134
f 73/119/119 37/134/134 33/135/135
f 33/135/135 29/136/136 73/119/119
f 73/119/119 29/136/136 25/137/137
f 73/119/119 25/137/137 21/138/138
f 21/138/138 17/139/139 73/119/119
f 73/119/119 17/139/139 13/140/140
f 73/119/119 13/140/140 9/141/141
f 9/141/141 5/142/142 73/119/119
f 73/119/119 5/142/142 1/143/143
f 73/119/119 1/143/143 3/144/144
f 73/119/119 3/144/144 75/168/168
f 75/168/168 3/144/144 7/145/145
f 75/168/168 7/145/145 11/146/146
f 11/146/146 15/147/147 75/168/168
f 75/168/168 15/147/147 19/148/148
f 75/168/168 19/148/148 23/149/149
f 23/149/149 27/150/150 75/168/168
f 75/168/168 27/150/150 31/151/151
f 75/168/168 31/151/151 35/152/152
f 35/152/152 39/153/153 75/168/168
f 75/168/168 39/153/153 43/154/154
f 75/168/168 43/154/154 47/155/155
f 47/155/155 51/156/156 75/168/168
f 75/168/168 51/156/156 55/157/157
f 75/168/168 55/157/157 59/158/158
f 59/158/158 63/159/159 75/168/168
f 75/168/168 63/159/159 67/160/160
f 75/168/168 67/160/160 71/161/161
f 71/161/161 79/162/162 75/168/168
f 75/168/168 79/162/162 83/163/163
f 75/168/168 83/163/163 87/164/164
f 87/164/164 95/165/165 75/168/168
f 75/168/168 95/165/165 99/166/166
f 75/168/168 99/166/166 104/167/167
f 102/169/169 105/170/170 103/172/172
f 103/172/172 105/170/170 106/171/171
f 90/174/174 103/224/224 92/173/173
f 92/173/173 103/224/224 106/177/177
f 92/173/173 106/177/177 100/178/178
f 74/175/175 86/221/221 90/174/174
f 90/174/174 86/221/221 94/222/222
f 90/174/174 94/222/222 98/223/223
f 76/176/176 4/200/200 74/175/175
f 74/175/175 4/200/200 2/201/201
f 74/175/175 2/201/201 6/202/202
f 92/173/173 88/180/180 76/176/176
f 76/176/176 88/180/180 84/181/181
f 76/176/176 84/181/181 80/182/182
f 100/178/178 96/179/179 92/173/173
f 92/173/173 96/179/179 88/180/180
f 80/182/182 72/183/183 76/176/176
f 76/176/176 72/183/183 68/184/184
f 76/176/176 68/184/184 64/185/185
f 64/185/185 60/186/186 76/176/176
f 76/176/176 60/186/186 56/187/187
f 76/176/176 56/187/187 52/188/188
f 52/188/188 48/189/189 76/176/176
f 76/176/176 48/189/189 44/190/190
f 76/176/176 44/190/190 40/191/191
f 40/191/191 36/192/192 76/176/176
f 76/176/176 36/192/192 32/193/193
f 76/176/176 32/193/193 28/194/194
f 28/194/194 24/195/195 76/176/176
f 76/176/176 24/195/195 20/196/196
f 76/176/176 20/196/196 16/197/197
f 16/197/197 12/198/198 76/176/176
f 76/176/176 12/198/198 8/199/199
f 76/176/176 8/199/199 4/200/200
f 6/202/202 10/203/203 74/175/175
f 74/175/175 10/203/203 14/204/204
f 74/175/175 14/204/204 18/205/205
f 18/205/205 22/206/206 74/175/175
f 74/175/175 22/206/206 26/207/207
f 74/175/175 26/207/207 30/208/208
f 30/208/208 34/209/209 74/175/175
f 74/175/175 34/209/209 38/210/210
f 74/175/175 38/210/210 42/211/211
f 42/211/211 46/212/212 74/175/175
f 74/175/175 46/212/212 50/213/213
f 74/175/175 50/213/213 54/214/214
f 54/214/214 58/215/215 74/175/175
f 74/175/175 58/215/215 62/216/216
f 74/175/175 62/216/216 66/217/217
f 66/217/217 70/218/218 74/175/175
f 74/175/175 70/218/218 78/219/219
f 74/175/175 78/219/219 82/220/220
f 82/220/220 86/221/221 74/175/175
f 98/223/223 103/224/224 90/174/174
f 90/225/225 92/226/226 89/228/228
f 89/228/228 92/226/226 91/227/227
# 106 vertices
# 228 texture params
# 228 normals
# 212 facets

# 1 groups
